<svg width="57" height="57" viewBox="0 0 57 57" fill="none" xmlns="http://www.w3.org/2000/svg">
<path d="M56 28.5C56 13.3475 43.6525 1 28.5 1C13.3475 1 1 13.3475 1 28.5C1 36.475 4.4375 43.6525 9.8825 48.685C9.8825 48.7125 9.8825 48.7125 9.855 48.74C10.13 49.015 10.46 49.235 10.735 49.4825C10.9 49.62 11.0375 49.7575 11.2025 49.8675C11.6975 50.28 12.2475 50.665 12.77 51.05C12.9625 51.1875 13.1275 51.2975 13.32 51.435C13.8425 51.7925 14.3925 52.1225 14.97 52.425C15.1625 52.535 15.3825 52.6725 15.575 52.7825C16.125 53.085 16.7025 53.36 17.3075 53.6075C17.5275 53.7175 17.7475 53.8275 17.9675 53.91C18.5725 54.1575 19.1775 54.3775 19.7825 54.57C20.0025 54.6525 20.2225 54.735 20.4425 54.79C21.1025 54.9825 21.7625 55.1475 22.4225 55.3125C22.615 55.3675 22.8075 55.4225 23.0275 55.45C23.7975 55.615 24.5675 55.725 25.365 55.8075C25.475 55.8075 25.585 55.835 25.695 55.8625C26.63 55.945 27.565 56 28.5 56C29.435 56 30.37 55.945 31.2775 55.8625C31.3875 55.8625 31.4975 55.835 31.6075 55.8075C32.405 55.725 33.175 55.615 33.945 55.45C34.1375 55.4225 34.33 55.34 34.55 55.3125C35.21 55.1475 35.8975 55.01 36.53 54.79C36.75 54.7075 36.97 54.625 37.19 54.57C37.795 54.35 38.4275 54.1575 39.005 53.91C39.225 53.8275 39.445 53.7175 39.665 53.6075C40.2425 53.36 40.82 53.085 41.3975 52.7825C41.6175 52.6725 41.81 52.535 42.0025 52.425C42.5525 52.095 43.1025 51.7925 43.6525 51.435C43.845 51.325 44.01 51.1875 44.2025 51.05C44.7525 50.665 45.275 50.28 45.77 49.8675C45.935 49.73 46.0725 49.5925 46.2375 49.4825C46.54 49.235 46.8425 48.9875 47.1175 48.74C47.1175 48.7125 47.1175 48.7125 47.09 48.685C52.5625 43.6525 56 36.475 56 28.5ZM42.085 42.1675C34.6325 37.1625 22.4225 37.1625 14.915 42.1675C13.705 42.965 12.715 43.9 11.89 44.9175C7.71 40.6825 5.125 34.88 5.125 28.5C5.125 15.6025 15.6025 5.125 28.5 5.125C41.3975 5.125 51.875 15.6025 51.875 28.5C51.875 34.88 49.29 40.6825 45.11 44.9175C44.3125 43.9 43.295 42.965 42.085 42.1675Z" fill="#D8D9DA"/>
<path d="M28.5 14.5566C22.8075 14.5566 18.1875 19.1766 18.1875 24.8692C18.1875 30.4517 22.56 34.9892 28.3625 35.1542H28.61H28.8025H28.8575C34.4125 34.9617 38.785 30.4517 38.8125 24.8692C38.8125 19.1766 34.1925 14.5566 28.5 14.5566Z" fill="#D8D9DA"/>
<circle cx="28.5" cy="28.5" r="27" stroke="url(#paint0_radial_1_491)" stroke-width="3"/>
<circle cx="48" cy="45" r="5.5" fill="#005ECD" stroke="black"/>
<path d="M50.4 44.4H48.6V42.6C48.6 42.272 48.328 42 48 42C47.672 42 47.4 42.272 47.4 42.6V44.4H45.6C45.272 44.4 45 44.672 45 45C45 45.328 45.272 45.6 45.6 45.6H47.4V47.4C47.4 47.728 47.672 48 48 48C48.328 48 48.6 47.728 48.6 47.4V45.6H50.4C50.728 45.6 51 45.328 51 45C51 44.672 50.728 44.4 50.4 44.4Z" fill="#FAFAFA"/>
<defs>
<radialGradient id="paint0_radial_1_491" cx="0" cy="0" r="1" gradientUnits="userSpaceOnUse" gradientTransform="translate(58.9675 17.2403) rotate(132.429) scale(57.4299 204.348)">
<stop stop-color="#6A4EB3"/>
<stop offset="0.309441" stop-color="#9F3C96"/>
<stop offset="0.765485" stop-color="#E96441"/>
<stop offset="1" stop-color="#FFBA72"/>
</radialGradient>
</defs>
</svg>
